HIERARCHY
ROOT Hips
{
	OFFSET 0.000000 0.000000 0.000000
	CHANNELS 6 Xposition Yposition Zposition Xrotation Yrotation Zrotation
	JOINT LeftUpLeg_virtual
	{
		OFFSET 0.000000 0.000000 0.000000
		CHANNELS 3 Xrotation Yrotation Zrotation
		JOINT LeftUpLeg
		{
			OFFSET 15.427100 -6.655098 0.678600
			CHANNELS 3 Xrotation Yrotation Zrotation
			JOINT LeftLeg
			{
				OFFSET 4.081073 -39.591068 13.024000
				CHANNELS 3 Xrotation Yrotation Zrotation
				JOINT LeftFoot
				{
					OFFSET -4.081074 -37.707932 -15.979700
					CHANNELS 3 Xrotation Yrotation Zrotation
					JOINT LeftToeBase
					{
						OFFSET 5.346399 -15.068900 20.645000
						CHANNELS 3 Xrotation Yrotation Zrotation
						JOINT LeftToe_End
						{
							OFFSET 2.754700 0.931300 11.300900
							CHANNELS 3 Xrotation Yrotation Zrotation
							End Site
							{
								OFFSET 0 0 0
							}
						}
					}
				}
			}
		}
	}
	JOINT RightUpLeg_virtual
	{
		OFFSET 0.000000 0.000000 0.000000
		CHANNELS 3 Xrotation Yrotation Zrotation
		JOINT RightUpLeg
		{
			OFFSET -15.569500 -6.655098 0.678600
			CHANNELS 3 Xrotation Yrotation Zrotation
			JOINT RightLeg
			{
				OFFSET -4.081825 -39.591045 13.023800
				CHANNELS 3 Xrotation Yrotation Zrotation
				JOINT RightFoot
				{
					OFFSET 4.081824 -37.707954 -15.979600
					CHANNELS 3 Xrotation Yrotation Zrotation
					JOINT RightToeBase
					{
						OFFSET -5.346400 -15.068900 20.645000
						CHANNELS 3 Xrotation Yrotation Zrotation
						JOINT RightToe_End
						{
							OFFSET -2.754700 0.931300 11.300900
							CHANNELS 3 Xrotation Yrotation Zrotation
							End Site
							{
								OFFSET 0 0 0
							}
						}
					}
				}
			}
		}
	}
	JOINT Spine_virtual
	{
		OFFSET 0.000000 0.000000 0.000000
		CHANNELS 3 Xrotation Yrotation Zrotation
		JOINT Spine
		{
			OFFSET -0.279200 12.230698 -2.892100
			CHANNELS 3 Xrotation Yrotation Zrotation
			JOINT Spine1
			{
				OFFSET -0.232667 10.192268 -1.242267
				CHANNELS 3 Xrotation Yrotation Zrotation
				JOINT Spine1_split
				{
					OFFSET -0.232667 10.192268 -1.242267
					CHANNELS 3 Xrotation Yrotation Zrotation
					JOINT Spine2
					{
						OFFSET -0.232667 10.192268 -1.242267
						CHANNELS 3 Xrotation Yrotation Zrotation
						JOINT Neck_virtual
						{
							OFFSET 0.000000 0.000000 0.000000
							CHANNELS 3 Xrotation Yrotation Zrotation
							JOINT Neck
							{
								OFFSET -0.418800 17.814194 8.416900
								CHANNELS 3 Xrotation Yrotation Zrotation
								JOINT Head
								{
									OFFSET 0.000000 7.031097 3.806800
									CHANNELS 3 Xrotation Yrotation Zrotation
									JOINT HeadTop_End
									{
										OFFSET 0.000000 24.646606 12.978600
										CHANNELS 3 Xrotation Yrotation Zrotation
										End Site
										{
											OFFSET 0 0 0
										}
									}
								}
							}
						}
						JOINT LeftShoulder_virtual
						{
							OFFSET 0.000000 0.000000 0.000000
							CHANNELS 3 Xrotation Yrotation Zrotation
							JOINT LeftShoulder
							{
								OFFSET 8.476499 7.247704 -3.868750
								CHANNELS 3 Xrotation Yrotation Zrotation
								JOINT LeftShoulder_split
								{
									OFFSET 8.476499 7.247704 -3.868750
									CHANNELS 3 Xrotation Yrotation Zrotation
									JOINT LeftArm
									{
										OFFSET 9.308998 -2.777710 0.208600
										CHANNELS 3 Xrotation Yrotation Zrotation
										JOINT LeftForeArm
										{
											OFFSET 29.972298 0.000000 0.000000
											CHANNELS 3 Xrotation Yrotation Zrotation
											JOINT LeftHand
											{
												OFFSET 26.026505 0.000000 0.000000
												CHANNELS 3 Xrotation Yrotation Zrotation
												End Site
												{
													OFFSET 0 0 0
												}
											}
										}
									}
								}
							}
						}
						JOINT RightShoulder_virtual
						{
							OFFSET 0.000000 0.000000 0.000000
							CHANNELS 3 Xrotation Yrotation Zrotation
							JOINT RightShoulder
							{
								OFFSET -7.570500 7.247704 -3.868750
								CHANNELS 3 Xrotation Yrotation Zrotation
								JOINT RightShoulder_split
								{
									OFFSET -7.570500 7.247704 -3.868750
									CHANNELS 3 Xrotation Yrotation Zrotation
									JOINT RightArm
									{
										OFFSET -9.308998 -2.777710 0.208500
										CHANNELS 3 Xrotation Yrotation Zrotation
										JOINT RightForeArm
										{
											OFFSET -29.972300 0.000000 0.000000
											CHANNELS 3 Xrotation Yrotation Zrotation
											JOINT RightHand
											{
												OFFSET -26.026505 0.000000 0.000000
												CHANNELS 3 Xrotation Yrotation Zrotation
												End Site
												{
													OFFSET 0 0 0
												}
											}
										}
									}
								}
							}
						}
					}
				}
			}
		}
	}
}
MOTION
Frames: 4
Frame Time: 0.03333333
1.109356 89.464943 -49.403763 0.000000 0.000000 0.000000 173.865785 -67.161940 176.719861 -24.956690 10.418690 16.902148 31.419003 -0.780252 -2.299020 -4.288059 -1.549409 -0.031096 1.265356 5.897410 -8.114999 0.000000 0.000000 0.000000 173.503607 -65.639498 176.671244 -7.164830 -12.327479 8.691999 16.400316 7.513488 -2.119322 -12.759897 3.608766 -7.832846 -0.786999 -6.834697 -0.987745 0.000000 0.000000 0.000000 172.026948 -66.615491 173.651126 4.050948 2.224072 4.000657 -3.383486 1.328500 -2.315029 0.679924 -1.474258 0.291359 0.000000 0.000000 0.000000 -5.032094 1.571765 -1.982682 1.627259 19.522692 7.575493 4.906916 27.189620 -15.163768 0.000000 0.000000 0.000000 -5.295736 2.172540 -2.229914 0.878392 0.501006 0.887169 -0.471821 -1.197106 -0.850836 12.619512 0.514630 -67.079903 7.691780 -21.268844 -7.982689 0.000000 0.000000 0.000000 -4.469008 1.855524 -2.756945 2.751670 -5.414582 17.730833 -5.438037 -1.087916 -0.846457 11.130444 32.879530 53.756649 15.134480 29.922147 -1.123297 0.000000 0.000000 0.000000 
0.189783 89.910507 -50.910095 0.000000 0.000000 0.000000 173.650087 -61.963230 176.223730 -25.490213 3.269614 12.661290 31.640370 -0.584275 -1.498591 -2.998628 -1.046883 -0.384389 -0.016811 6.541236 -8.450035 0.000000 0.000000 0.000000 173.247912 -59.746704 176.190344 -6.442029 -9.606536 10.590022 17.044507 10.360621 -1.271665 -12.814542 3.462121 -9.935850 -1.142271 -6.669773 -1.075084 0.000000 0.000000 0.000000 172.573677 -60.945341 173.733935 4.448998 2.772554 3.849098 -3.288416 1.786934 -2.417758 0.723222 -1.403679 0.357426 0.000000 0.000000 0.000000 -5.011409 1.989501 -2.133715 1.330388 17.754559 7.558601 4.136938 24.718784 -14.052059 0.000000 0.000000 0.000000 -5.332623 2.600240 -2.322976 0.782506 0.349803 1.287479 -0.169342 -1.186522 -0.781821 13.769288 1.316883 -68.631079 8.793381 -20.242077 -8.051181 0.000000 0.000000 0.000000 -4.414422 2.258958 -2.886710 2.777757 -5.733055 17.891732 -5.341817 -1.222897 -0.641090 10.089412 34.977522 53.849560 15.355087 28.979004 -1.570089 0.000000 0.000000 0.000000 
-0.860333 90.481880 -52.571281 0.000000 0.000000 0.000000 173.463541 -56.769992 175.733514 -26.996225 -3.064640 8.719694 30.782027 -0.984161 -0.714631 -1.497162 -1.010444 -2.002570 -2.077344 7.193738 -8.660924 0.000000 0.000000 0.000000 173.297226 -53.872851 176.103218 -5.533127 -6.848144 12.287461 18.176254 13.005263 -0.437989 -12.749903 3.298912 -12.011908 -0.983654 -6.467800 -1.176457 0.000000 0.000000 0.000000 173.188394 -55.375977 174.040938 4.851958 3.267194 3.403111 -3.065474 2.155095 -2.295681 0.796086 -1.087777 0.371166 0.000000 0.000000 0.000000 -4.866041 2.330673 -2.081563 1.105162 15.684343 7.128674 2.931873 21.383915 -12.306858 0.000000 0.000000 0.000000 -5.261580 2.947226 -2.176747 0.683877 0.182908 1.599166 0.152185 -1.229547 -0.756332 14.632634 1.828477 -70.179265 9.590482 -18.407968 -8.254858 0.000000 0.000000 0.000000 -4.261096 2.576525 -2.772367 2.817861 -6.073861 17.851994 -5.229729 -1.292994 -0.390923 8.863662 37.304574 54.258084 15.397176 27.688480 -1.985601 0.000000 0.000000 0.000000 
-2.028666 90.989525 -54.219658 0.000000 0.000000 0.000000 173.564614 -51.406691 175.645391 -29.248759 -7.891670 5.468350 29.265790 -1.752296 -0.208568 0.021947 -1.254917 -4.323699 -3.622512 7.758843 -9.079367 0.000000 0.000000 0.000000 173.586553 -48.052034 176.302605 -4.706791 -4.298955 13.712992 19.737691 15.658248 0.248528 -11.972398 3.208337 -13.554089 -1.353167 -6.194866 -1.580730 0.000000 0.000000 0.000000 173.920399 -50.115861 174.727960 5.293322 3.682028 2.745293 -2.729707 2.420003 -1.980386 0.917353 -0.566372 0.274812 0.000000 0.000000 0.000000 -4.595852 2.579666 -1.849923 1.051916 13.353818 6.317649 1.517110 17.331042 -10.141500 0.000000 0.000000 0.000000 -5.076831 3.205340 -1.826131 0.592282 0.099701 1.782239 0.524986 -1.413648 -0.744524 15.349535 2.179846 -71.522763 10.017044 -16.315563 -8.571148 0.000000 0.000000 0.000000 -4.020423 2.800866 -2.458769 2.868696 -6.409772 17.550876 -5.040307 -1.266318 -0.090092 7.530597 39.669483 55.038081 15.296424 26.412198 -2.402448 0.000000 0.000000 0.000000 
